<mxfile host="app.diagrams.net" modified="2023-06-21T08:30:52.474Z" agent="Mozilla/5.0 (Windows NT 10.0; Win64; x64) AppleWebKit/537.36 (KHTML, like Gecko) Chrome/113.0.0.0 Safari/537.36 Edg/113.0.1774.42" etag="II64KF0nxwBb5hZSMgwk" version="21.3.7" type="github">
  <diagram name="Seite-1" id="GISMydbRUjltf6MwDALM">
    <mxGraphModel dx="2183" dy="924" grid="1" gridSize="10" guides="1" tooltips="1" connect="1" arrows="1" fold="1" page="1" pageScale="1" pageWidth="827" pageHeight="1169" math="0" shadow="0">
      <root>
        <mxCell id="0" />
        <mxCell id="1" parent="0" />
        <mxCell id="sWYTQ772Na0f0fXQNi9o-1" value="&lt;font style=&quot;font-size: 18px;&quot;&gt;Entwicklungsrechner&lt;br&gt;&lt;/font&gt;(Eclipse/IntelliJ/&lt;br&gt;VisualStudio)" style="rounded=0;whiteSpace=wrap;html=1;" parent="1" vertex="1">
          <mxGeometry x="-80" y="305" width="210" height="110" as="geometry" />
        </mxCell>
        <mxCell id="okvbarDoN7U4hY6clf4D-6" style="edgeStyle=orthogonalEdgeStyle;rounded=0;orthogonalLoop=1;jettySize=auto;html=1;exitX=0.336;exitY=1.017;exitDx=0;exitDy=0;entryX=1;entryY=0.75;entryDx=0;entryDy=0;exitPerimeter=0;" parent="1" source="sWYTQ772Na0f0fXQNi9o-2" target="okvbarDoN7U4hY6clf4D-2" edge="1">
          <mxGeometry relative="1" as="geometry" />
        </mxCell>
        <mxCell id="okvbarDoN7U4hY6clf4D-11" style="edgeStyle=orthogonalEdgeStyle;rounded=0;orthogonalLoop=1;jettySize=auto;html=1;exitX=1;exitY=0.25;exitDx=0;exitDy=0;entryX=0;entryY=0.25;entryDx=0;entryDy=0;" parent="1" source="sWYTQ772Na0f0fXQNi9o-2" target="okvbarDoN7U4hY6clf4D-1" edge="1">
          <mxGeometry relative="1" as="geometry" />
        </mxCell>
        <mxCell id="okvbarDoN7U4hY6clf4D-18" style="edgeStyle=orthogonalEdgeStyle;rounded=0;orthogonalLoop=1;jettySize=auto;html=1;exitX=0.143;exitY=1;exitDx=0;exitDy=0;exitPerimeter=0;entryX=1.008;entryY=0.4;entryDx=0;entryDy=0;entryPerimeter=0;" parent="1" source="sWYTQ772Na0f0fXQNi9o-2" target="okvbarDoN7U4hY6clf4D-2" edge="1">
          <mxGeometry relative="1" as="geometry">
            <mxPoint x="110" y="470" as="targetPoint" />
          </mxGeometry>
        </mxCell>
        <mxCell id="sWYTQ772Na0f0fXQNi9o-2" value="&lt;font style=&quot;font-size: 18px;&quot;&gt;Gitlab/Jenkins&lt;/font&gt;" style="rounded=0;whiteSpace=wrap;html=1;" parent="1" vertex="1">
          <mxGeometry x="250" y="330" width="140" height="60" as="geometry" />
        </mxCell>
        <mxCell id="okvbarDoN7U4hY6clf4D-26" style="edgeStyle=orthogonalEdgeStyle;rounded=0;orthogonalLoop=1;jettySize=auto;html=1;exitX=0.5;exitY=1;exitDx=0;exitDy=0;entryX=0.5;entryY=0;entryDx=0;entryDy=0;" parent="1" source="okvbarDoN7U4hY6clf4D-1" target="okvbarDoN7U4hY6clf4D-24" edge="1">
          <mxGeometry relative="1" as="geometry" />
        </mxCell>
        <mxCell id="okvbarDoN7U4hY6clf4D-1" value="&lt;font style=&quot;font-size: 18px;&quot;&gt;Openshift&lt;/font&gt;" style="rounded=0;whiteSpace=wrap;html=1;" parent="1" vertex="1">
          <mxGeometry x="520" y="330" width="120" height="60" as="geometry" />
        </mxCell>
        <mxCell id="okvbarDoN7U4hY6clf4D-2" value="JIRA" style="rounded=0;whiteSpace=wrap;html=1;" parent="1" vertex="1">
          <mxGeometry x="-80" y="480" width="120" height="60" as="geometry" />
        </mxCell>
        <mxCell id="okvbarDoN7U4hY6clf4D-4" value="" style="endArrow=classic;html=1;rounded=0;entryX=0;entryY=0.5;entryDx=0;entryDy=0;exitX=1;exitY=0.5;exitDx=0;exitDy=0;align=center;" parent="1" source="sWYTQ772Na0f0fXQNi9o-1" target="sWYTQ772Na0f0fXQNi9o-2" edge="1">
          <mxGeometry width="50" height="50" relative="1" as="geometry">
            <mxPoint x="527" y="510" as="sourcePoint" />
            <mxPoint x="577" y="460" as="targetPoint" />
            <Array as="points">
              <mxPoint x="180" y="360" />
            </Array>
          </mxGeometry>
        </mxCell>
        <mxCell id="okvbarDoN7U4hY6clf4D-8" value="Pipeline holt Executions" style="text;html=1;strokeColor=none;fillColor=none;align=center;verticalAlign=middle;whiteSpace=wrap;rounded=0;" parent="1" vertex="1">
          <mxGeometry x="120" y="470" width="80" height="30" as="geometry" />
        </mxCell>
        <mxCell id="okvbarDoN7U4hY6clf4D-9" value="Pushen von Automatisierungs&lt;br&gt;&amp;nbsp;Funktionen" style="text;html=1;strokeColor=none;fillColor=none;align=center;verticalAlign=middle;whiteSpace=wrap;rounded=0;" parent="1" vertex="1">
          <mxGeometry x="147" y="310" width="90" height="50" as="geometry" />
        </mxCell>
        <mxCell id="okvbarDoN7U4hY6clf4D-12" value="&lt;font style=&quot;font-size: 18px;&quot;&gt;TollNow&lt;/font&gt;" style="rounded=0;whiteSpace=wrap;html=1;" parent="1" vertex="1">
          <mxGeometry x="780" y="490" width="120" height="60" as="geometry" />
        </mxCell>
        <mxCell id="okvbarDoN7U4hY6clf4D-13" value="" style="endArrow=classic;html=1;rounded=0;exitX=1;exitY=0.5;exitDx=0;exitDy=0;entryX=0;entryY=0.5;entryDx=0;entryDy=0;" parent="1" source="okvbarDoN7U4hY6clf4D-24" target="okvbarDoN7U4hY6clf4D-12" edge="1">
          <mxGeometry width="50" height="50" relative="1" as="geometry">
            <mxPoint x="637" y="420" as="sourcePoint" />
            <mxPoint x="687" y="370" as="targetPoint" />
          </mxGeometry>
        </mxCell>
        <mxCell id="okvbarDoN7U4hY6clf4D-15" value="Image für Pod erstellung" style="text;html=1;strokeColor=none;fillColor=none;align=center;verticalAlign=middle;whiteSpace=wrap;rounded=0;" parent="1" vertex="1">
          <mxGeometry x="400" y="310" width="90" height="30" as="geometry" />
        </mxCell>
        <mxCell id="okvbarDoN7U4hY6clf4D-20" value="Testergebnisse&amp;nbsp;&lt;br&gt;werden abgelegt" style="text;html=1;strokeColor=none;fillColor=none;align=center;verticalAlign=middle;whiteSpace=wrap;rounded=0;" parent="1" vertex="1">
          <mxGeometry x="120" y="530" width="93" height="30" as="geometry" />
        </mxCell>
        <mxCell id="okvbarDoN7U4hY6clf4D-21" value="" style="endArrow=classic;html=1;rounded=0;exitX=1;exitY=0.75;exitDx=0;exitDy=0;entryX=0;entryY=0.25;entryDx=0;entryDy=0;" parent="1" source="sWYTQ772Na0f0fXQNi9o-2" target="okvbarDoN7U4hY6clf4D-24" edge="1">
          <mxGeometry width="50" height="50" relative="1" as="geometry">
            <mxPoint x="390" y="420" as="sourcePoint" />
            <mxPoint x="440" y="370" as="targetPoint" />
            <Array as="points">
              <mxPoint x="450" y="375" />
              <mxPoint x="450" y="505" />
            </Array>
          </mxGeometry>
        </mxCell>
        <mxCell id="okvbarDoN7U4hY6clf4D-22" value="Pipeline leitet Execution weiter" style="text;html=1;strokeColor=none;fillColor=none;align=center;verticalAlign=middle;whiteSpace=wrap;rounded=0;" parent="1" vertex="1">
          <mxGeometry x="350" y="415" width="100" height="30" as="geometry" />
        </mxCell>
        <mxCell id="okvbarDoN7U4hY6clf4D-23" value="REST-Aufrufe für Testfälle&amp;nbsp;" style="text;html=1;strokeColor=none;fillColor=none;align=center;verticalAlign=middle;whiteSpace=wrap;rounded=0;" parent="1" vertex="1">
          <mxGeometry x="660" y="530" width="100" height="30" as="geometry" />
        </mxCell>
        <mxCell id="okvbarDoN7U4hY6clf4D-24" value="&lt;font style=&quot;font-size: 18px;&quot;&gt;Test-Pod&lt;/font&gt;" style="rounded=0;whiteSpace=wrap;html=1;" parent="1" vertex="1">
          <mxGeometry x="520" y="490" width="120" height="60" as="geometry" />
        </mxCell>
        <mxCell id="okvbarDoN7U4hY6clf4D-29" style="edgeStyle=orthogonalEdgeStyle;rounded=0;orthogonalLoop=1;jettySize=auto;html=1;exitX=0;exitY=0.5;exitDx=0;exitDy=0;entryX=0.667;entryY=1;entryDx=0;entryDy=0;entryPerimeter=0;" parent="1" source="okvbarDoN7U4hY6clf4D-25" target="okvbarDoN7U4hY6clf4D-2" edge="1">
          <mxGeometry relative="1" as="geometry" />
        </mxCell>
        <mxCell id="okvbarDoN7U4hY6clf4D-31" style="edgeStyle=orthogonalEdgeStyle;rounded=0;orthogonalLoop=1;jettySize=auto;html=1;exitX=1;exitY=0.5;exitDx=0;exitDy=0;entryX=0.5;entryY=1;entryDx=0;entryDy=0;" parent="1" source="okvbarDoN7U4hY6clf4D-25" target="okvbarDoN7U4hY6clf4D-24" edge="1">
          <mxGeometry relative="1" as="geometry" />
        </mxCell>
        <mxCell id="okvbarDoN7U4hY6clf4D-25" value="&lt;font style=&quot;font-size: 18px;&quot;&gt;Testrechner&lt;/font&gt;" style="rounded=0;whiteSpace=wrap;html=1;" parent="1" vertex="1">
          <mxGeometry x="290" y="600" width="140" height="60" as="geometry" />
        </mxCell>
        <mxCell id="okvbarDoN7U4hY6clf4D-27" value="Deployment" style="text;html=1;align=center;verticalAlign=middle;resizable=0;points=[];autosize=1;strokeColor=none;fillColor=none;" parent="1" vertex="1">
          <mxGeometry x="570" y="410" width="90" height="30" as="geometry" />
        </mxCell>
        <mxCell id="okvbarDoN7U4hY6clf4D-30" value="manuelles Abrufen&amp;nbsp;&lt;br&gt;Execution" style="text;html=1;align=center;verticalAlign=middle;resizable=0;points=[];autosize=1;strokeColor=none;fillColor=none;" parent="1" vertex="1">
          <mxGeometry x="90" y="630" width="130" height="40" as="geometry" />
        </mxCell>
        <mxCell id="okvbarDoN7U4hY6clf4D-32" value="manulles weiterleiten&amp;nbsp;&lt;br&gt;Execution&lt;br&gt;" style="text;html=1;align=center;verticalAlign=middle;resizable=0;points=[];autosize=1;strokeColor=none;fillColor=none;" parent="1" vertex="1">
          <mxGeometry x="450" y="630" width="140" height="40" as="geometry" />
        </mxCell>
      </root>
    </mxGraphModel>
  </diagram>
</mxfile>
